<?xml version="1.0" encoding="UTF-8"?>
<svg id="Layer_2" data-name="Layer 2" xmlns="http://www.w3.org/2000/svg" viewBox="0 0 881.78 206.95">
  <defs>
    <style>
      .cls-1 {
        fill: #16293f;
      }

      .cls-2 {
        fill: #fc764c;
      }
    </style>
  </defs>
  <g id="Layer_1-2" data-name="Layer 1">
    <g>
      <g>
        <rect class="cls-1" x="384.05" width="27.29" height="162.84"/>
        <path class="cls-1" d="M485.3,46.56c-35.78,0-61.01,25.23-61.01,59.63s25.23,59.63,61.01,59.63c26.83,0,47.47-13.99,55.96-35.55h-29.13c-5.73,7.34-14.68,10.78-26.83,10.78-16.05,0-28.67-8.72-32.34-25.23h92.89v-9.63c0-34.4-24.77-59.63-60.55-59.63ZM453.65,94.03c4.36-14.91,16.28-22.7,31.65-22.7s27.29,7.57,31.65,22.7h-63.3Z"/>
        <polygon class="cls-1" points="839.58 107.15 879.95 49.54 847.61 49.54 820.32 88.25 793.02 49.54 760 49.54 799.9 107.15 758.16 162.84 790.27 162.84 819.4 125.59 848.76 162.84 881.78 162.84 839.58 107.15"/>
        <polygon class="cls-1" points="699.63 127.65 668.91 49.54 640.19 49.54 684.72 160.77 665.1 206.95 692.15 206.95 758.16 49.54 731.55 49.54 699.63 127.65"/>
        <path class="cls-1" d="M636.26,74.31l-10.64-24.77h-40.12V9.4h-27.29v107.05c0,31.42,18.81,46.56,46.33,46.56h28.08v-25.46h-28.08c-11.24,0-19.04-5.96-19.04-21.1v-42.15h50.76Z"/>
        <path class="cls-1" d="M307.8,46.56c-36.01,0-61.24,24.77-61.24,60.78,0,38.76,28.9,58.48,56.42,58.48,9.87,0,18.92-2.63,26.24-7.77v-25.12c-5.61,4.69-12.98,7.43-21.66,7.43-19.95,0-33.48-14.22-33.48-34.17s13.53-34.17,33.48-34.17,33.26,14.22,33.26,34.17v56.65h27.29v-56.65h-.04c-.42-35.94-25.03-59.63-60.28-59.63Z"/>
      </g>
      <g>
        <path class="cls-2" d="M114.3,101.71c2.04,12.7,13.08,22.46,26.35,22.46,14.71,0,26.67-11.97,26.67-26.67,0-6.15-2.1-11.84-5.61-16.35-4.95,2.45-10.21,4.72-15.73,6.82,3.34,1.87,5.61,5.46,5.61,9.53,0,6.04-4.91,10.95-10.95,10.95s-10.95-4.91-10.95-10.95c0-1.3.23-2.55.66-3.7-6.81,2.79-12.04,5.46-16.06,7.91Z"/>
        <path class="cls-2" d="M56.82,88.08c-5.49-2.08-10.74-4.32-15.67-6.76-3.44,4.49-5.49,10.1-5.49,16.18,0,14.71,11.97,26.67,26.67,26.67,13.21,0,24.18-9.63,26.3-22.22-3.96-2.47-9.16-5.13-15.93-7.93.38,1.1.59,2.25.59,3.47,0,6.04-4.91,10.95-10.95,10.95s-10.93-4.91-10.93-10.95c0-4.02,2.17-7.53,5.42-9.42Z"/>
        <path class="cls-2" d="M101.27,96.02s6.6-16.01,37.31-29.85l61.43-26.78V1.92s-45.73,20.94-61.43,26.78c-30.34,11.28-37.31,29.85-37.31,29.85,0,0-6.83-18.96-37.31-29.85C48.36,23.13,2.53,3.8,2.53,3.8v37.47l61.43,24.9c30.59,13.57,37.31,29.85,37.31,29.85Z"/>
        <path class="cls-2" d="M190.6,60.21h0s0,0,0,0c0,0,0,0,0,0,0,0,0,0,0,0l-14.92,6.97,3.23,3.66s0,0-.01,0c5.29,7.55,8.4,16.74,8.4,26.66,0,25.71-20.92,46.63-46.63,46.63-12.74,0-24.64-5.06-33.51-14.21l-5.64-5.85-5.66,5.85c-8.87,9.17-20.77,14.21-33.51,14.21-25.69,0-46.61-20.92-46.61-46.63,0-9.82,3.04-18.92,8.23-26.43l3.17-3.59-14.93-6.98C4.53,70.87,0,83.67,0,97.5c0,34.4,27.96,62.35,62.33,62.35,10.65,0,20.84-2.62,29.9-7.61,0,0,0,0,0,0,2.26,3.77,5.52,8.13,10.15,12.26,4.33-3.87,7.47-7.95,9.71-11.54,8.7,4.51,18.44,6.89,28.56,6.89,34.38,0,62.35-27.96,62.35-62.35,0-13.97-4.62-26.87-12.41-37.29Z"/>
      </g>
    </g>
  </g>
</svg>