<?xml version="1.0" encoding="UTF-8"?>
<svg id="Layer_1" data-name="Layer 1" xmlns="http://www.w3.org/2000/svg" viewBox="0 0 1300 900">
  <defs>
    <style>
      .cls-1 {
        fill: #fff;
      }

      .cls-2 {
        fill: #16293f;
      }

      .cls-3 {
        fill: #fc764c;
      }
    </style>
  </defs>
  <rect class="cls-2" x="-15.18" y="-10.51" width="1330.36" height="921.02"/>
  <g>
    <g>
      <rect class="cls-1" x="619.89" y="395.19" width="14.46" height="86.26"/>
      <path class="cls-1" d="M673.52,419.85c-18.95,0-32.32,13.36-32.32,31.59s13.36,31.59,32.32,31.59c14.21,0,25.15-7.41,29.64-18.83h-15.43c-3.04,3.89-7.78,5.71-14.21,5.71-8.5,0-15.19-4.62-17.13-13.36h49.2v-5.1c0-18.22-13.12-31.59-32.07-31.59ZM656.76,445c2.31-7.9,8.63-12.03,16.77-12.03s14.46,4.01,16.77,12.03h-33.53Z"/>
      <polygon class="cls-1" points="861.2 451.95 882.58 421.43 865.45 421.43 850.99 441.94 836.53 421.43 819.04 421.43 840.18 451.95 818.07 481.45 835.08 481.45 850.51 461.72 866.06 481.45 883.55 481.45 861.2 451.95"/>
      <polygon class="cls-1" points="787.06 462.81 770.79 421.43 755.57 421.43 779.17 480.35 768.77 504.81 783.1 504.81 818.07 421.43 803.97 421.43 787.06 462.81"/>
      <path class="cls-1" d="M753.49,434.55l-5.64-13.12h-21.25v-21.26h-14.46v56.71c0,16.64,9.96,24.66,24.54,24.66h14.87v-13.49h-14.87c-5.95,0-10.08-3.16-10.08-11.18v-22.33h26.89Z"/>
      <path class="cls-1" d="M579.5,419.85c-19.07,0-32.44,13.12-32.44,32.2,0,20.53,15.31,30.98,29.89,30.98,5.23,0,10.02-1.4,13.9-4.11v-13.3c-2.97,2.48-6.88,3.93-11.47,3.93-10.57,0-17.74-7.53-17.74-18.1s7.17-18.1,17.74-18.1,17.62,7.53,17.62,18.1v30.01h14.46v-30.01h-.02c-.22-19.04-13.26-31.59-31.93-31.59Z"/>
    </g>
    <path class="cls-1" d="M521.83,425.52l-2.17-3.37,7.24-3.16v-29.81l-6.38,2.93c-.99.45-24.27,11.09-32.23,14.05-9.4,3.5-15.02,8.32-18.14,11.91-3.14-3.66-8.8-8.54-18.3-11.93-7.31-2.61-28.05-11.3-32.13-13.02l-6.42-2.72v29.67l7.16,2.9-1.17,1.57c-4.8,6.49-7.34,14.2-7.34,22.28,0,20.69,16.83,37.53,37.52,37.53,4.88,0,9.82-.97,14.32-2.82,1.17,1.48,2.48,2.87,3.9,4.14l2.99,2.68,3-2.68c1.31-1.17,2.54-2.47,3.67-3.86,4.29,1.66,8.99,2.54,13.61,2.54,20.69,0,37.53-16.84,37.53-37.53,0-7.67-2.31-15.05-6.66-21.32Z"/>
    <g>
      <path class="cls-3" d="M477,449.07c1.08,6.73,6.93,11.9,13.96,11.9,7.79,0,14.13-6.34,14.13-14.13,0-3.26-1.11-6.27-2.97-8.66-2.62,1.3-5.41,2.5-8.33,3.61,1.77.99,2.97,2.89,2.97,5.05,0,3.2-2.6,5.8-5.8,5.8s-5.8-2.6-5.8-5.8c0-.69.12-1.35.35-1.96-3.61,1.48-6.38,2.89-8.51,4.19Z"/>
      <path class="cls-3" d="M446.55,441.85c-2.91-1.1-5.69-2.29-8.3-3.58-1.82,2.38-2.91,5.35-2.91,8.57,0,7.79,6.34,14.13,14.13,14.13,7,0,12.81-5.1,13.93-11.77-2.1-1.31-4.85-2.72-8.44-4.2.2.58.31,1.19.31,1.84,0,3.2-2.6,5.8-5.8,5.8s-5.79-2.6-5.79-5.8c0-2.13,1.15-3.99,2.87-4.99Z"/>
      <path class="cls-3" d="M470.1,446.05s3.5-8.48,19.76-15.81l32.54-14.19v-19.85s-24.22,11.09-32.54,14.19c-16.07,5.98-19.76,15.81-19.76,15.81,0,0-3.62-10.05-19.76-15.81-8.27-2.95-32.54-13.19-32.54-13.19v19.85l32.54,13.19c16.2,7.19,19.76,15.81,19.76,15.81Z"/>
      <path class="cls-3" d="M517.41,427.08h0s0,0,0,0c0,0,0,0,0,0,0,0,0,0,0,0l-7.9,3.69,1.71,1.94s0,0,0,0c2.8,4,4.45,8.87,4.45,14.12,0,13.62-11.08,24.7-24.7,24.7-6.75,0-13.05-2.68-17.75-7.53l-2.99-3.1-3,3.1c-4.7,4.86-11,7.53-17.75,7.53-13.61,0-24.69-11.08-24.69-24.7,0-5.2,1.61-10.02,4.36-14l1.68-1.9-7.91-3.7c-4.06,5.49-6.46,12.27-6.46,19.6,0,18.22,14.81,33.03,33.02,33.03,5.64,0,11.04-1.39,15.84-4.03,0,0,0,0,0,0,1.2,2,2.92,4.31,5.38,6.5,2.29-2.05,3.96-4.21,5.15-6.11,4.61,2.39,9.77,3.65,15.13,3.65,18.21,0,33.03-14.81,33.03-33.03,0-7.4-2.45-14.24-6.58-19.75Z"/>
    </g>
  </g>
</svg>